<?xml version="1.0" encoding="utf-8"?>
<!-- Generator: Adobe Illustrator 16.0.0, SVG Export Plug-In . SVG Version: 6.00 Build 0)  -->
<!DOCTYPE svg PUBLIC "-//W3C//DTD SVG 1.1//EN" "http://www.w3.org/Graphics/SVG/1.1/DTD/svg11.dtd" [
	<!ENTITY ns_extend "http://ns.adobe.com/Extensibility/1.0/">
	<!ENTITY ns_ai "http://ns.adobe.com/AdobeIllustrator/10.0/">
	<!ENTITY ns_graphs "http://ns.adobe.com/Graphs/1.0/">
	<!ENTITY ns_vars "http://ns.adobe.com/Variables/1.0/">
	<!ENTITY ns_imrep "http://ns.adobe.com/ImageReplacement/1.0/">
	<!ENTITY ns_sfw "http://ns.adobe.com/SaveForWeb/1.0/">
	<!ENTITY ns_custom "http://ns.adobe.com/GenericCustomNamespace/1.0/">
	<!ENTITY ns_adobe_xpath "http://ns.adobe.com/XPath/1.0/">
]>
<svg version="1.1" xmlns:x="&ns_extend;" xmlns:i="&ns_ai;" xmlns:graph="&ns_graphs;"
	 xmlns="http://www.w3.org/2000/svg" xmlns:xlink="http://www.w3.org/1999/xlink" x="0px" y="0px" width="266.894px"
	 height="266.895px" viewBox="0 0 266.894 266.895" enable-background="new 0 0 266.894 266.895" xml:space="preserve">
<metadata>
	<sfw  xmlns="&ns_sfw;">
		<slices></slices>
		<sliceSourceBounds  height="266.895" width="266.893" x="429.553" y="-391.447" bottomLeftOrigin="true"></sliceSourceBounds>
	</sfw>
</metadata>
<g id="Background">
	<rect x="2.354" y="4.447" fill="#EAEBED" width="255.094" height="262.447"/>
	<g id="Frame">
	</g>
	<g id="Text">
	</g>
</g>
<g id="White">
</g>
<g id="Blue">
	<path id="Blue_1_" fill="#3C5A99" d="M252.164,266.895c8.134,0,14.729-6.596,14.729-14.73V14.73c0-8.137-6.596-14.73-14.729-14.73
		H14.73C6.594,0,0,6.594,0,14.73v237.434c0,8.135,6.594,14.73,14.73,14.73H252.164z"/>
	<path id="f" fill="#FFFFFF" d="M184.152,266.895V163.539h34.692l5.194-40.28h-39.887V97.542c0-11.662,3.238-19.609,19.962-19.609
		l21.329-0.01V41.897c-3.689-0.49-16.351-1.587-31.08-1.587c-30.753,0-51.807,18.771-51.807,53.244v29.705h-34.781v40.28h34.781
		v103.355H184.152z"/>
	<g>
	</g>
	<g>
	</g>
	<g>
	</g>
	<g>
	</g>
	<g>
	</g>
	<g>
	</g>
</g>
</svg>
