<?xml version="1.0" encoding="utf-8"?>
<!-- Generator: Adobe Illustrator 16.0.0, SVG Export Plug-In . SVG Version: 6.00 Build 0)  -->
<!DOCTYPE svg PUBLIC "-//W3C//DTD SVG 1.1//EN" "http://www.w3.org/Graphics/SVG/1.1/DTD/svg11.dtd" [
	<!ENTITY ns_extend "http://ns.adobe.com/Extensibility/1.0/">
	<!ENTITY ns_ai "http://ns.adobe.com/AdobeIllustrator/10.0/">
	<!ENTITY ns_graphs "http://ns.adobe.com/Graphs/1.0/">
	<!ENTITY ns_vars "http://ns.adobe.com/Variables/1.0/">
	<!ENTITY ns_imrep "http://ns.adobe.com/ImageReplacement/1.0/">
	<!ENTITY ns_sfw "http://ns.adobe.com/SaveForWeb/1.0/">
	<!ENTITY ns_custom "http://ns.adobe.com/GenericCustomNamespace/1.0/">
	<!ENTITY ns_adobe_xpath "http://ns.adobe.com/XPath/1.0/">
]>
<svg version="1.1" id="Layer_1" xmlns:x="&ns_extend;" xmlns:i="&ns_ai;" xmlns:graph="&ns_graphs;"
	 xmlns="http://www.w3.org/2000/svg" xmlns:xlink="http://www.w3.org/1999/xlink" x="0px" y="0px" width="400px" height="400px"
	 viewBox="0 0 400 400" enable-background="new 0 0 400 400" xml:space="preserve">
<metadata>
	<sfw  xmlns="&ns_sfw;">
		<slices></slices>
		<sliceSourceBounds  width="401.028" height="401.001" x="-0.528" y="-0.5" bottomLeftOrigin="true"></sliceSourceBounds>
	</sfw>
</metadata>
<g id="Grid">
	<path id="_x37_5px_left" opacity="0.75" fill="#666666" enable-background="new    " d="M75,400
		c17.991-13.68,21.894-13.877,2.613-21.04c19.28,7.158,15.884,7.25-4.785,0.233c20.665,7.021,10.852,7.852-9.547,20.807
		c20.399-12.955,24.553-13.451,1.908-17.525c22.644,4.072,13.553,5.271-10.857,3.045c24.409,2.228,6.749,6.797-16.832,14.48
		c23.581-7.686,17.855-5.874-6.747-6.432c24.602,0.558,6.232,5.552-19.035,6.432c25.267-0.88,16.727-1.356-11.719,0
		c28.446-1.356,28.35-1.381,0-3.989c28.35,2.607,26.362,1.82,0-11.317c26.362,13.138,24.128,11.785,3.239-10.563
		c20.89,22.35,15.247,17.741-3.239-7.104c18.486,24.845,17.021,23.023,5.026-5.57c11.996,28.595,9.105,24.426,5.299-5.922
		c3.807,30.347-2.426,17.451,4.566-9.766c-6.994,27.211-8.031,24.584-4.157-2.28C6.857,370.354,6.438,369.536,0,343.984
		c6.439,25.552,2.415,7.855,19.372-12.18c-16.896,19.944-19.293,3.01-0.086-12.988C0.024,334.762-0.032,339.189,0,316.548
		c-0.032,22.642-0.3,1.239,19.673-14.549c-19.908,15.687-19.327,3.321,0.988-14.074C0.235,305.199-0.212,310.323,0,285.691
		c-0.214,24.632,0.367,9.77,18.086-9.344c-17.614,19.012-15.595-1.604,5.829-11.707c-21.43,9.81-21.612,4.951-6.129-9.509
		C2.248,269.561,1.854,272.297,0,252.393c1.858,19.901,4.082,2.555,20.337-12.388c-16.229,14.896-14.144,1.57-0.257-15.944
		C6.183,241.563,6.646,239.164,0,217.627c6.646,21.531,10.291,7.999,19.905-13.238c-9.611,21.231-3.6,5.7,0.367-16.043
		c-3.969,21.74-0.82,12.012-20.271-5.972c19.448,17.932,22.761,11.442,20.458-12.386c2.31,23.815,6.204,9.435,0.036-15.097
		c6.15,24.509,5.398-1.391-20.494-7.281c25.823,5.42,32.062,7.994,19.121-10.378c12.953,18.353,13.929,3.261-0.875-14.035
		c14.8,17.291,11.765-4.931-18.246-8.886c29.989,3.709,32.604,10.718,15.862-9.374c16.744,20.09,16.053,8.153-0.997-12.945
		C31.913,113.086,28.484,94.174,0,83.452c28.474,10.527,30.4,14.101,14.759-9.86c15.653,23.944,13.628,12.788,1.26-11.752
		C28.369,86.353,22.113,61.882,0,56.015c22.11,5.773,24.313,11.587,15.752-7.196c8.579,18.761,5.979,8.14-1.399-8.294
		c7.362,16.418,2.524,1.924-14.353-7.55c16.9,9.455,16.854,8.896,8.685-6.751c8.158,15.625,3.296,5.22-8.685-10.917
		C12.008,31.344,8.765,24.956,0,3.99C8.764,24.519,7.527,21.393,0,0c7.527,21.393,9.228,23.47,11.719,0
		C10.26,23.324,12.62,28.085,27.238,9.077C13.59,28.52,24.907,16.497,37.5,0c-10.441,16.497-1.689,16.496,10.919,10.979
		C42.469,14.02,57.915,4.032,63.281,0C63.744,7.488,74.691,0.297,75,0c-0.309,0.297-1.721,2.978,0,3.99
		C73.235,7.97,61.971,20,75,15.307c-4.492,3.711-9.289,7.355-12.588,10.417c-3.737,3.194-9.689,7.337-3.604,6.92
		c-3.45,2.845,6.294,1.662,16.192,0.33c-9.928,1.986-31.224,9.961-20.528,6.321c-15.307,6.387-18.851,12.86-0.671,7.47
		c-15.073,7.972,10.263,5.8,21.199,9.25c-10.949-3.183-40.487,11.809-21.516,0.66c-20.923,12.819-22.152,31.532,0.382,13.123
		C32.093,89.234,61.914,81.22,75,83.452c-13.147-1.638-43.301,21.366-21.12,2.405c-22.291,19.069-21.413,32.642-0.235,14.601
		C32.501,118.551,56.939,112.463,75,114.309c-16.006-1.004-41.894,13.644-18.232,0.294c-23.767,13.398-23.578,25.035-6,9.149
		c-17.579,15.906-16.889,21.083,6.116,12.753c-22.716,8.636,3.638,8.559,18.115,11.103c-14.534-2.07-40.892,6.844-17.72,0.449
		c-23.65,6.672-27.631,22.166-5.246,10.407c-22.371,12.009-20.526,16.643,6.237,13.67c-25.636,4.239,8.744,7.944,16.729,10.238
		c-10.475-1.102-45.139,4.959-18.79,6.291c-27.239,0.017-21.534,7.541,0.723,15.886c-19.554-3.807,9.395,10.564,18.067,13.077
		c-8.874,0.06-19.123,1.613-17.295,7.467c-6.68,1.921-2.504,9.944,0.454,15.075c2.958,5.13,8.647,9.785,16.841,12.223
		c-25.259,1.34-23.557,26.051,0,33.301c-16.113,1.275-19.95,12.468-14.58,21.186c2.686,4.357,7.673,8.1,14.58,9.671
		c-7.596,1.789-12.616,14.351-16.544,8.04c-0.593,5.813,2.772,17.078,3.605,20.473c2.231,8.178,1.344,4.529-4.957-9.914
		c4.392,9.892,20.978,43.91,14.749,20.4c8.476,25.282,16.998,27.828,9.942,2.583c7.343,24.765-0.478-1.702-6.795-14.146
		c6.317,12.442,16.655,39.414,9.788,15.027c6.941,24.92,3.458,25.524-6.27,0.824c8.983,24.342-10.192-1.958-18.358-13.328
		c8.166,11.372,26.982,37.92,17.276,13.807c10.271,24.515,13.817,25.119,2.871,2.295c10.775,22.746-4.875,17.566-15.739-6.723
		c10.864,24.289,29.875,29.441,20.233,7.237c10,22.322,15.362,22.624,4.92,2.778c10.378,19.867,0.712,20.259-14.722,1.123
		c15.434,19.136,26.787,18.779,16.363-0.522c10.521,19.31,10.347,19.458-1.714,1.854c11.975,17.634,1.491,17.963-18.038,5.686
		c19.529,12.277,29.58,11.979,16.928-4.979c12.709,16.947,14.68,17.026,0.604,2.779c14.051,14.273,6.571,14.289-14.144,12.848
		c20.715,1.441,26.952,1.425,11.991-11.84c14.971,13.252,14.6,13.26-2.003,3.11c16.595,10.162,9.393,10.259-9.988,20.047
		c19.381-9.788,24.538-9.897,6.921-19.013c17.619,9.105,17.165,9.104-1.064,1.309C99.083,386.109,92.991,386.32,75,400z"/>
	<path id="_x37_5px_top" opacity="0.75" fill="#666666" enable-background="new    " d="M400,0
		c-0.106,0.098-3.702,3.924-6.271,6.895c-2.796,2.978-4.385,5.08-0.109,1.756c-5.634,5.856-10.836,7.921-5.677,8.643
		c-2.753-0.36,5.604-1.972,12.058-5.574c-3.581,2.797-11.689,7.146-12.659,12.157c-6.891,3.27-16.313,3.509-8.887,9.406
		c-9.059-4.422-4.537-4.072,6.293-8.767c-10.896,4.756-14.014,10.627-11.685,18.769c-5.667-0.565-2.824,5.327-0.603,5.21
		c0.521-2.408-0.395-10.53,8.407-15.365c-8.801,4.837-6.842,13.789-6.918,16.087c-0.685,1.48,1.265,0.828,5.478-1.607
		c4.191-2.463,10.899-6.344,20.572-10.109c-19.347,7.548-26.063,19.698-26.251,17.909c-0.095-0.895-1.602-9.095,3.847-15.455
		c-5.447,6.36-3.809,17.985-4.388,22.743c-1.159,9.516,0.982,6.847,5.013-13.354c-6.046,30.3-5.186,33.011,21.779,13.938
		c-26.966,19.075-26.592,23.04-21.017-6.776c-5.575,29.816-4.771,35.425,0.146,5.929C374.214,91.93,374.37,93.725,400,75
		c-25.63,18.725-25.579,18.812-21.061-10.495c-4.52,29.307-4.623,28.298-1.223-1.254c-3.4,29.552-3.133,33.52,18.293,11.75
		c-21.426,21.77-22.088,14.672-19.141-15.222c-2.947,29.894-3.247,27.855-3.011-2.217c-0.236,30.072,1.026,44.043,10.834,17.438
		c-9.808,26.605-11.619,9.368-12.217-20.833c0.598,30.201,0.311,28.648-4.812-1.178c5.121,29.826,7.237,49.009-0.64,22.011
		c7.877,26.999,5.846,8.274-0.965-21.185c6.811,29.459,6.833,29.615-5.839,2.003C372.896,83.43,373.517,88.357,343.985,75
		c29.53,13.357,27.019-0.52-3.091-13.523c30.004,12.988-18.054,0.793-24.704,3.656c-6.651,2.863-9.125,6.762,0.356,9.868
		c-9.502-3.106-18.822-6.134-26.117-8.126s-12.584-3.136-13.97-1.915c-1.411,0.851,1.06,4.063,9.229,10.041
		c-8.172-5.978-17.209-16.198-23.351-14.182c-6.069-7.64-12.789-13.277-14.407-2.226c-1.924-7.766-1.273,7.091,4.459,16.408
		c-4.301-6.988-10.709-23.743-13.938-16.697c-3.983-13.264-13.691-31.48-13.229-6.865c-2.83-24.876-6.742-11.285-8.337,4.916
		c-0.425-11.083-1.483,9.925,0.739,18.646c-2.234-8.719-6.078-31.049-9.559-19.78c-1.531-17.036-13.125-32.634-12.165-6.81
		c-3.102-25.846-7.603-7.724-10.116,6.485c-1.243-7.621-3.91,11.098-3.415,20.105c-0.588-8.998-3.431-24.463-7.199-19.868
		c-2.42-11.581-10.942-28.559-13.131-6.122c-1.803-22.228-8.835,1.195-11.658,6.874c-2.817,4.374-4.154,10.787-2.776,19.116
		c-1.753-8.292-5.573-14.279-10.101-18.134c-4.502-3.958-12.124-19.804-14.35-5.346c-3.991-14.093-8.529,2.341-10.449,6.394
		c-1.928,3.971-1.847,9.725,1.6,17.085c-4.967-9.79-13.658-12.38-21.836-11.708c-8.178,0.672-15.843,4.608-18.759,7.871
		C70.076,74.579,72.63,77.017,83.45,75c-10.82,2.017-49.845,23.056-24.159,8.952c-26.609,14.625-27.484,25.946-8.616,4.917
		c-18.872,21.023-18.76,4.54,5.337-13.869C31.914,93.408,32.445,119.142,42.17,94.855c-9.727,24.287-9.607,26.616-11.106,1.07
		c1.5,25.546,0.009,6.424,1.907-20.925c-1.898,27.35-0.428,46.565-8.623,22.096c8.194,24.47,8.093,23.045-4.656,0.101
		C32.445,120.14,30.604,98.995,15.307,75c15.298,23.995,17.033,43.543,2.647,21.295c14.386,22.248,14.171,19.465-3.527-1.002
		c17.697,20.465,16.058,3.752-4.593-16.564C30.468,98.99,28.694,90.74,3.99,75c24.705,15.74,26.382,23.355,5.493,3.239
		c20.906,20.178,22.45,35.235,3.481,15.486c18.97,19.751,18.842,18.384-1.336-0.566c20.175,18.945,18.369,3.239-4.205-15.583
		C29.962,96.286,26.712,85.833,0,75c26.712,10.833,29.698,19.869,6.906,1.403c22.828,18.585,24.453,31.13,2.979,12.741
		c21.478,18.393,20.856,12.538-1.292-6.051c22.136,18.556,19.862,5.144-1.466-13.913c21.313,18.847,16.674-2.033-2.153-14.062
		C23.763,67.066,23.657,71.084,0,63.281c23.657,7.803,21.97-4.126,4.956-14.68c17.037,10.527,19.048,18.826,1.579,5.49
		c17.473,13.456,22.573,37.651-0.44,19.755c23.016,17.893,17.914-6.407,0.811-20.124c17.105,13.603,15.351,6.119-0.408-5.77
		C22.25,59.86,25.883,76.798,4.886,62.317c21.006,14.366,15.068-11.06,0.879-23.072C19.948,51.228,17.969,45.705,0,37.5
		c17.969,8.205,19.497,12.238,5.62,0.026C19.502,49.75,22.044,59.341,4.778,49.019c17.267,10.322,14.829,1.009,1.575-11.706
		c13.255,12.702,12.766,11.171-0.477-1.52c13.242,12.691,12.394,10.123,0.008-3.198C18.266,45.895,11.056,29.79,0,11.719
		c11.056,18.071,17.479,31.95,5.764,18.244c11.718,13.709,6.86,2.671-1.301-15.093c8.157,17.724,12.4,27.1,2.129,12.544
		c10.274,14.564,8.763,10.891-0.442-4.562C15.347,38.267,8.019,22.98,0,0c8.02,22.983,15.122,37.738,6.83,21.792
		c8.303,15.978,8.512,16.437,1.004,0.168C15.337,38.199,8.692,23.78,3.99,0c4.703,23.779,11.614,38.822,3.68,22.861
		c7.939,15.994,8.915,18.327,1.31,2.415c7.607,15.896,2.231,4.13,2.226-17.785c0.005,21.915,5.462,33.875-1.753,17.821
		c7.215,16.07,6.642,14.634,1.678-2.378c4.971,16.981-1.06,1.464,4.176-22.934c-5.235,24.398,0.921,40.214-3.599,23.125
		c4.517,17.12,6.007,20.956,2.171,3.768c3.849,17.177-0.676,5.289,12.051-14.018c-12.727,19.307-8.438,30.542-10.021,12.867
		c1.578,17.683-0.035,13.551,3.784-4.918C15.926,39.219,16.822,18.611,32.974,0C16.822,18.611,15.733,38.672,21.143,20.253
		c-5.455,18.508-3.75,22.883,0.928,4.773c-4.632,18.095-4.183,2.827,18.543-10.237C17.888,27.853,17.361,42.855,23.61,24.866
		c-6.286,18.012-6.981,15.837,4.426-1.424c-11.196,17.179,4.956-1.562,22.103-7.647c-17.147,6.085-34.171,19.278-17.104,3.654
		c-17.341,15.556-16.531,8.659,3.995-5.856C18.279,26.685,47.867,5.623,56.015,0c-8.148,5.623-33.922,22.608-15.944,11.859
		c-19.648,12.477-19.215,14.599,1.784,4.478c-18.592,10.581,10.48,0.834,20.609,1.054c-10.128-0.22-34.062,6.876-17.488-1.241
		c-18.25,7.681-7.93,2.925,5.274-0.69c-5.592,3.837,13.125,0.815,23.482,2.43c-10.356-1.615-16.581-2.547-17.858-4.311
		c-2.581-0.965,0.123-2.944,5.015-5.056C65.781,6.411,73.598,3.721,83.452,0C53.89,11.164,56.371,10.996,87.509,18.783
		c-31.139-7.787-18.554-8.804,13.893,0.296C68.956,9.979,83.092,9.029,114.309,0c-31.217,9.029-26.982,8.744,3.72,19.614
		c-30.702-10.871-14.43-11.294,15.903,0.175C103.599,8.32,116.141,7.71,147.609,0c-31.468,7.71-30.251,7.65,1.05,16.96
		c-31.301-9.31-19.522-9.764,9.712,5.785c-29.233-15.549-16.643-15.092,13.022-5.588C141.728,7.652,153.909,8.553,182.374,0
		c-28.465,8.553-28.064,8.6,0.053,17.337c-28.117-8.738-14.806-7.194,10.357,5.861c-25.161-13.056-12.682-11.5,13.965-5.738
		C180.103,11.699,193.94,13.107,217.627,0c-23.686,13.107-24.287,13.064,1.67,17.316c-25.957-4.251-12.765-2.73,10.563,5.375
		c-23.325-8.105-11.586-7.179,13.139-5.971c-24.725-1.208-12.748-1.062,9.395-16.72c-22.143,15.659-21.813,15.684,4.313,19.191
		c-26.125-3.507-11.419-3.64,14.824-0.425c-26.243-3.215-9.975-3.513,14.164-18.766c-24.139,15.253-26.444,15.322,0.892,17.825
		c-27.336-2.503-14.974-2.778,13.985-0.563c-28.959-2.214-10.416-3.3,15.979-17.262c-26.396,13.962-32.664,14.357-3.719,10.442
		c-28.945,3.916-28.027,3.896,1.128,6.262c-29.155-2.366-21.181-2.774,7.781,3.242c-28.962-6.016-25.294-6.291,4.424-3.248
		c-29.718-3.043-18.486-4.418,13.299-2.259c-31.785-2.16-25.856-2.76,4.524-14.439c-30.382,11.68-26.987,11.567,4.478,19.906
		c-31.465-8.338-41.514-7.525-10.018-2.681c-31.496-4.845-12.222-5.737,14.944,12.785c-27.134-18.496-21.877-18.138,4.229,1.713
		c-26.134-19.943-39.813-20.192-7.971-13.974c-31.842-6.218-17.621-6.062,10.349,10.846c-27.867-16.91-26.932-17.084,4.104-8.462
		c-30.995-8.85-26.687-9.266,2.926-20.134c-29.61,10.868-33.059,11.301-2.322,20.741c-30.759-9.129-27.764-8.22-1.146,8.898
		c-26.694-17.131-34.869-18.256-3.107-12.657c-31.762-5.599-18.542-2.129,3.753,17.637c-21.979-18.75-19.381-17.314,2.166-0.507
		c-21.234-18.296-28.479-22.109,2.446-18.422c-30.92-3.691-25.229-1.614,0.771,11.146c-25.523-13.025-19.366-12.466,6.254-10.414
		C351.831,11.16,375.375,5.843,384.693,0c-10.993,8.962-34.906,12.56-9.942,19.162c-25.471-4.997-9.417-1.825,8.187-9.71
		c-16.858,7.45-13.462,6.533,0.867,3.712C375.743,9.321,394.363,1.134,396.011,0C394.435,4.03,399.575,0.392,400,0z"/>
	<path id="_x37_5px_bottom" opacity="0.75" fill="#666666" enable-background="new    " d="M401,325
		c-6.241,5.494-21.402,20.25,0,11.719c-21.465,13.584-27.377,17.076,0,25.781c-27.367-5.325-0.962,17.922,0,25.781
		c0,7.031,0,11.719,0,11.719s-1.384,0-3.989,0c-2.604,0-6.433,0-11.316,0c-4.911-0.109-13.499-9.579-17.667,0
		c-6.719-9.938-17.533-15.906-23.041,0c-5.368-16.409-21.926-18.891-27.438,0c-5.388-19.398-23.808-20.739-30.856,0
		c-3.736-21.371-28.047-22.188-33.299,0c-5.263-23.02-30.973-29.307-34.766,0c-1.352-29.796-26.051-31.555-35.253,0
		c6.675-31.712-26.225-28.511-34.765,0c3.858-28.764-27.029-26.639-33.299,0c0.93-27.061-26.219-31.839-30.857,0
		c3.745-31.839-14.317-29.686-27.437,0c12.16-29.686-7.97-12.648-23.041,0c7.075-12.648-12.783,0-17.667,0
		c-4.885,0-8.712,0-11.317,0C2.384,400,1,400,1,400s0-4.688,0-11.719s16.632-29.397,0-25.781
		c5.544-4.611,10.828-9.497,14.265-13.802c3.625-4.188,5.024-8.026,3.176-10.31c-1.848-2.281-7.132-3.125-17.44-1.671
		C31.925,330.455,31.055,318.141,1,325c30.055-6.859,33.119-13.17,3.989,0c29.29-13.17,29.288-25.729,11.317,0
		c17.972-25.729,17.771-30.969,17.667,0c0.104-30.969,0.547-21.652,23.041,0c-7.497-7.218-8.114-9.613-5.216-9.604
		c2.898,0.011,9.326,2.625,15.875,4.834c6.54,3.453,15.796,21.315,16.779,4.77c4.066,16.527,12.347,15.943,15.062,0
		c3.667,15.786,14.221,16.295,15.795,0c7.951,15.641,27.893,21.471,30.455,0c7.297,20.973,30.794,26.116,31.755,0
		c6.55,25.789,33.331,26.618,32.301,0c8.062,26.031,38.539,30.199,32.098,0c9.406,30.066,39.748,31.184,31.141,0
		c10.455,31.033,40.443,31.676,29.428,0c11.879,31.628,45.401,30.648,26.967,0c18.734,30.628,37.004,29.023,23.75,0
		c13.282,29.023,14.452,28.582,19.783,0c-5.187,28.575-2.558,23.327,15.062,0c-15.921,23.271-2.482,10.32,9.59,0
		C388.424,335.299,394.759,330.494,401,325z"/>
	<path id="_x37_5px_right" opacity="0.75" fill="#666666" enable-background="new    " d="M400,401
		c-20.835-5.965-21.631-4.624-5.556,0c-16.079-4.624-17.079-3.228-13.89,0c-3.191-3.228-2.653-4.343-18.056,0
		c15.313-4.343,10.053-4.612-13.771,0c20.893-4.158-2.547-0.587-12.012,0c-1.123-0.447-11.848-1.119-11.719,0
		c-0.129-1.119-0.746-10.102,0-3.989c-0.754-10.341,5.247-40.311,0-11.317c5.247-30.17,23.044-37.576,0-17.666
		c7.682-6.639,17.454-11.506,17.372-15.305c8.2-3.173,14.734-6.207,2.009-7.148c8.692-0.787-8.686-1.309-19.381-0.588
		c10.695-0.721,33.445-3.271,20.634-5.562c17.261-1.491,14.398-7.008-0.756-10.217c10.086-2.187-10.317-7.89-19.878-11.66
		c7.196,2.423,12.792,1.259,16.639-1.735c6.806-2.819,25.641-8.892,6.142-12.73c19.785-1.191,3.411-10.262-5.249-13.211
		c1.956-2.844-9.541-4.959-17.53-3.18c7.963-2.486,22.541-7.875,17.894-11.088c12.527-4.729,34.163-12.08,5.934-13.795
		c28.232-0.223,13.194-8.924-5.98-9.678c14.424-1.32-9.925-1.74-17.846,1.262c7.869-3.34,32.688-8.946,17.898-12.004
		c19.858-2.255,33.793-7.828,6.223-12.885c27.603,3.721,17.346-9.548-5.838-9.133c19.729-2.021-10.072-2.409-18.283-0.744
		c8.172-1.925,41.745-9.311,18.141-8.816c26.389-3.088,35.551-6.303,5.72-11.857c29.828,5.279,24.889-7.474-6.21-10.334
		c29.889,2.05-9.915-4.352-17.649-4.245c10.133-1.633,49.955-2.65,19.21-10.901c31.229,7.439,29.188-7.208-1.057-15.36
		c29.444,7.064-9.605-8.069-18.153-8.503c8.347-2.263,44.059-5.36,16.609-10.887c28.592,3.682,28.793-9.348-0.084-13.76
		c27.914,2.962-8.306-7.506-16.525-8.652c8.01-1.636,13.772-8.478,4.74-13.037c3.955-5.704-8.608-12.597-11.278-16.624
		c-2.67-4.026-2.37-5.481,6.538-1.197c-5.938-3.317-10.231-7.234-13.097-11.16c-2.864-3.926-4.301-7.862-4.525-11.217
		c-0.272-3.684-0.53-28.082,2.74-7.734c-1.521-21.852,7.468-27.139,12.19-1.613c-1.281-25.31,6.398-5.614,2.69,4.288
		c3.854-10.18-10.384-41.159-2.056-8.511c-9.154-33.145-29.009-34.616-11.643-7.188c-17.375-27.442-25.897-26.947-1.348-9.088
		c-24.552-17.858-11.948-18.694,12.756,0.502c-24.703-19.196-22.122-19.47,2.289,1.244c-24.411-20.714-27.918-20.354-2.673-2.411
		c-25.245-17.943-40.342-17.018-13.6-3.974c-26.742-13.043-28.049-12.989,0.12-4.597C280.68,14.6,295.413,13.74,325,16.307
		c-29.587-2.566-43.132-1.782-14.692,5.542c-28.438-7.324-27.599-7.386,1.339-2.988c-28.938-4.399-15.34-5.26,13.354-13.871
		c-28.693,8.611-40.32,9.362-11.287,13.209c-29.033-3.848-28.411-3.885,0.729-1.07C285.302,14.314,297.355,13.472,325,1
		c-27.645,12.472-34.619,13.027-5.418,9.968c-29.201,3.059-31.036,3.181-1.828,5.984c-29.208-2.804-24.179-3.081,5.188,0.007
		c-29.367-3.088-22.359-3.777,8.285-4.39c-30.646,0.613-24.293-0.254,5.49-11.57c-29.783,11.316-29.438,11.335,2.189,15.234
		c-31.628-3.899-37.571-3.123-6.979,1.139c-30.594-4.261-8.694-5.887,18.911,12.037c-27.595-17.919-38.73-17.561-6.825-11.631
		c-31.905-5.93-15.472-6.292,13.021,9.828c-28.45-16.116-26.757-16.197,4.296-7.096c-31.041-9.186-29.56-9.367,1.168-19.51
		c-30.728,10.143-30.981,10.323-0.223,20.548c-30.756-10.076-27.64-9.479-0.429,7.847c-27.268-17.362-36.355-17.979-4.583-12.912
		c-31.772-5.068-17.773-2.759,5.883,17.209c-23.304-19.255-19.377-17.304,3.257-0.573c-22.237-18.044-27.43-20.991,3.335-18.337
		c-30.751-2.661-24.825-0.511,1.048,11.007c-25.177-11.822-14.536-10.385,7.704-10.042C359.016,11.012,382.734,5.28,388.281,1
		c-6.969,7.232-25.56,11.45-8.015,14.315c-17.827-0.89,0.138-0.139,9.188-7.259c-6.876,6.024-3.17,4.497,1.7,1.267
		C393.604,6.201,399.777,1.201,400,1c-0.89,0.803-5.597,6.402,0,3.99c-1.665,1.941-15.349,9.128-13.738,14.417
		c-9.683,3.12-8.772,6.015,2.732-2.131c-8.896,5.734-22.376,4.273-10.15,10.783c-12.897-5.169-3.86-2.625,5.359-2.468
		c-2.743-4.098,9.354-5.768,15.797-9.284c-5.516,3.321-14.78,7.387-15.284,13.071c-7.374,2.599-13.484,3.644-8.378,8.926
		c-6.604-4.367-7.333-7.959,5.102-10.765c-12.449,2.816-9.531,13.278-9.17,19.256c-3.16,1.495-1.909,4.658-0.265,3.252
		c0.794-2.646-2.983-14.015,7.236-17.031c-10.219,3.017-6.132,13.194-5.585,15.259c-0.688,0.462,1.545-0.866,6.038-3.595
		c3.923-3.291,10.864-7.257,20.306-10.706c-9.441,3.46-16.049,8.253-20.132,12.188c-4.271,3.743-6.087,6.636-6.253,6.012
		c-0.211-0.689-3.849-10.755,3.868-14.85c-7.717,4.095-4.094,17.655-4.758,22.179c-1.327,9.049,0.822,5.811,5.208-14.583
		c-6.577,30.591-5.861,30.39,22.065,12.095c-27.928,18.298-26.869,27.685-21.226-2.219c-5.645,29.903-4.095,42.139,0.398,13.331
		c-4.493,28.808-4.352,33.381,20.826,16.325c-25.178,17.058-24.973,26.9-19.98,0.475c-4.991,26.425-4.225,42.112,0.483,15.657
		c-4.708,26.455-4.269,31.689,19.497,14.725c-23.766,16.974-23.377,32.116-18.896,4.932c-4.479,27.185-4.231,43.989,0.336,15.302
		c-4.567,28.688-4.259,34.121,18.562,13.065c-22.82,21.063-22.028,36.095-18.474,6.488c-3.556,29.606-2.192,43.313,0.083,15.373
		c-2.275,27.94-1.835,32.498,18.391,12.904c-20.226,19.595-19.368,30.971-17.188,6.699c-2.181,24.271-0.8,40.859,1.41,15.47
		c-2.21,25.39-1.051,36.433,15.777,13.084c-16.828,23.356-15.434,37.996-15.075,9.168c-0.357,28.828,1.038,41.724-0.203,14.81
		c1.241,26.914,1.887,33.929,15.278,10.787c-13.393,23.142-12.807,35.894-18.298,9.688c5.491,26.206,5.8,40.615-2.058,13.968
		c7.856,26.647,8.128,35.856,20.354,9.646c-12.228,26.213-12.087,32.567-22.173,5.22c10.086,27.349,10.164,41.825,0.384,13.534
		c9.78,28.291,9.705,38.722,21.789,12.104c-12.084,26.618-12.101,28.385-20.24,0.715c8.141,27.67,7.919,40.663,1.185,11.526
		c6.734,29.137,5.638,44.294,19.057,15.196c-13.419,29.098-13.747,30.746-12.313-0.69c-1.436,31.438-3.736,39.187,5.559,11.813
		c-9.295,27.371-11.313,32.929,6.754,11.918c-18.066,21.011-19.668,24.822,0,9.565c-19.668,15.257-20.496,16.921,0,8.101
		c-20.496,8.82-20.918,9.492,0,11.317C379.082,395.189,379.165,395.035,400,401z"/>
	<path id="_x35_0px_left" opacity="0.8" fill="#CCCCCC" enable-background="new    " d="M50,400
		c22.493-10.932,30.845-12.604,6.778-15.848c24.066,3.242,18.915,4.176-5.78,2.392c24.695,1.784,9.628,5.915-13.961,13.456
		c23.589-7.541,19.07-6.113-5.568-6.225c24.638,0.11,6.522,5.202-18.506,6.225c25.028-1.021,18.088-0.83-9.259,0
		c27.347-0.83,24.742-1.356-3.704,0c28.446-1.356,28.35-1.381,0-3.989c28.35,2.607,26.362,1.82,0-11.317
		c26.362,13.138,24.128,11.785,3.239-10.563c20.89,22.35,15.247,17.741-3.239-7.104c18.486,24.845,17.021,23.023,5.026-5.57
		c11.996,28.595,9.105,24.426,5.299-5.922c3.807,30.347-2.426,17.451,4.566-9.766c-6.994,27.211-8.031,24.584-4.157-2.28
		C6.857,370.354,6.438,369.536,0,343.984c6.439,25.552,2.415,7.855,19.372-12.18c-16.896,19.944-19.293,3.01-0.086-12.988
		C0.024,334.762-0.032,339.189,0,316.548c-0.032,22.642-0.3,1.239,19.673-14.549c-19.908,15.687-19.326,3.321,0.988-14.074
		C0.235,305.199-0.212,310.323,0,285.691c-0.214,24.632,0.367,9.77,18.086-9.344c-17.614,19.012-15.595-1.604,5.829-11.707
		c-21.43,9.81-21.612,4.951-6.129-9.509C2.248,269.561,1.854,272.297,0,252.393c1.858,19.901,4.082,2.555,20.337-12.388
		c-16.229,14.896-14.144,1.57-0.257-15.944C6.183,241.563,6.646,239.164,0,217.627c6.646,21.531,10.291,7.999,19.905-13.238
		c-9.611,21.231-3.6,5.7,0.367-16.043c-3.969,21.74-0.82,12.012-20.271-5.972c19.448,17.932,22.761,11.442,20.458-12.386
		c2.31,23.815,6.204,9.435,0.036-15.097c6.15,24.509,5.398-1.391-20.494-7.281c25.823,5.42,32.062,7.994,19.121-10.378
		c12.953,18.353,13.929,3.261-0.875-14.035c14.8,17.291,11.765-4.931-18.246-8.886c29.989,3.709,32.604,10.718,15.862-9.374
		c16.744,20.09,16.053,8.153-0.997-12.945C31.913,113.086,28.484,94.174,0,83.452c28.474,10.527,30.4,14.101,14.759-9.86
		c15.653,23.944,13.628,12.788,1.26-11.753C28.369,86.353,22.113,61.882,0,56.015c22.11,5.773,24.313,11.587,15.752-7.195
		c8.579,18.761,5.979,8.14-1.399-8.295c7.362,16.418,2.524,1.924-14.353-7.55c16.9,9.455,16.854,8.896,8.685-6.751
		c8.158,15.625,3.296,5.22-8.685-10.917C12.008,31.344,8.765,24.956,0,3.99C8.764,24.519,7.527,21.393,0,0
		c7.527,21.393,8.682,23.698,5.031,1.273C9.239,23.784,9.676,23.322,12.963,0C10.511,23.353,12.884,27.944,28.3,9.385
		C13.863,28.394,24.46,16.757,37.037,0c-10.919,16.757-12.712,24.228,6.406,15.056C25.979,24.006,46.751,9.716,50,0
		c-3.249,9.716-22.233,24.68-4.62,17.665C27.543,26.03,44.409,15.792,50,3.99c-5.591,12.429-26.889,30.492-6.184,21.783
		C22.96,35.659,36.793,26.228,50,15.307c-13.208,10.979-27.635,26.385-7.049,16.217c-20.589,10.96-12.16,8.008,7.049,1.45
		c-19.209,6.558-26.852,14.74-7.107,3.913C23.145,48.66,29.341,69.44,50,56.015c-20.378,14.041-24.165,5.067-6.301-9.089
		C25.583,61.23,28.17,79.819,43.743,57.877C28.289,80.481,31.416,105.115,50,83.452c-18.584,21.663-19.406,13.597-6.216-11.961
		c-13.205,25.58-11.929,40-0.003,15.616C31.856,111.498,32.896,132.501,50,114.309c-17.104,18.192-17.255,12.377-6.261-10.402
		c-10.994,22.779-10.651,35.432-0.039,15.442c-10.611,19.993-12.293,41.9,6.3,28.259c-18.593,13.64-17.313,6.617-6.833-11.128
		c-10.483,17.75-14.679,36.552-0.495,16.814C28.497,173.091,24.595,189.522,50,182.373c-25.405,7.149-25.879,7.142-8.176-10.322
		c-17.713,17.479-21.375,28.331-0.354,17.503C20.462,200.47,26.401,208.141,50,217.627c-23.599-9.486-33.988-5.313-8.917-9.191
		c-25.146,3.988-26.613,14.975-0.034,16.938c-26.188,0.099,1.92,18.071,8.951,27.019c-7.031-8.947-31.916-12.851-9.229-9.205
		c-23.698-2.424-18.645,9.696-0.244,16.002c-16.407,2.397,4.609,17.553,9.474,26.502c-4.864-8.949-22.66-11.988-10.014-10.061
		c-14.907-0.001-15.701,10.953-0.296,14.697c-13.065,6.121,5.007,17.029,10.31,26.22c-2.651-4.595-12.184-7.78-6.497-9.157
		c-8.554-1.349-18.788-1.295-3.687-1.16c-16.052,0.767-18.732,3.662-1.036,4.959c-17.586,1.424-12.161,6.183,1.458,9.199
		c-12.619,1.019,4.155,8.412,8.177,14.482c3.876,6.094,11.46,23.564,9.167,14.975c4.127,12.562-0.285,1.975-7.584-5.859
		c7.299,7.834,16.652,30.811,9.317,10.625c7.027,20.115-2.827-0.531-7.264-7.362c-3.772-4.192-18.736-9.286-11.047-14.05
		c-5.978,7.256,12.246,25.207,10.478,18.173c4.423,12.3-9.039,4.222-10.133-8.304c-5.64,9.861,28.933,39.846,18.16,16.529
		c12.441,24.618,22.482,27.045,6.109,6.461c16.311,20.644,1.117,23.469-15.62,0.969c16.736,22.5,34.349,19.55,17.812-0.086
		c16.63,19.621,11.854,19.559-3.445-2.896c14.849,22.266-23.454,12.014-20.889-8.9c-2.566,20.916,34.804,31.266,19.753,8.992
		c15.447,22.473,18.398,22.713,1.26,2.805c16.993,19.918-5.538,24.246-19.229-0.703c13.691,24.949,37.8,20.554,20.299,1.742
		c17.628,18.842,21.103,18.662,1.258,4.793c19.82,13.894,7.835,15.781-16.82,11.92c24.655,3.861,36.759,1.966,16.584-11.153
		c20.195,13.104,19.581,13.165-0.816,0.194c20.372,12.984,7.341,15.171-17.463,11.509c24.804,3.662,36.775,1.593,15.828-10.646
		c20.961,12.23,21.248,12.2-0.822,3.166c22.062,9.043,10.428,10.998-13.312,18.248c23.739-7.25,34.062-9.055,11.303-16.619
		c22.761,7.562,22.37,7.605-0.812,1.629C83.671,387,72.493,389.068,50,400z"/>
	<path id="_x35_0px_right" opacity="0.8" fill="#CCCCCC" enable-background="new    " d="M400,400
		c-20.87-4.91-22.328-2.587-12.963,0c-9.367-2.587-9.155-3.261-24.074,0c14.836-3.26,10.787-4.396-12.963,0
		c23.75-4.396,25.345-5.459,0-3.989c25.346-2.19,28.098-4.935,0-11.317c28.105,5.586,30.174-4.889,0-17.666
		c30.237,11.119,26.925-17.358,0-23.041c27.087,0.724,26.003-21.006,0-27.438c26.172,0.224,24.351-25.172,0-30.856
		c25.018-2.02,29.556-27.15,0-33.299c29.723,2.668,28.027-29.205,0-34.766c28.363,2.869,28.651-22.937,0-35.253
		c28.679,12.045,26.513-18.424,0-34.765c26.541,15.979,25.698-19.125,0-33.299c25.715,13.989,24.741-13.486,0-30.857
		c24.741,17.365,21.935-4.974,0-27.438c7.312,7.487,11.715,10.016,13.682,9.196c1.967-0.82,1.495-4.989-0.94-10.898
		c-2.9-6.99-38.082-42.729-12.74-21.338c-25.342-21.391-1.342-6.752,10.957,11.105c-10.885-17.816-23.17-29.722-0.841-8.361
		C337.371,13.256,317.845,11.522,350,15.307c-32.155-3.785-20.697-3.822,8.016,11.798c-28.694-15.609-32.136-15.678-1.259-6.147
		c-30.883-9.545-38.28-9.487-6.757-16.968c-31.523,7.481-26.943,7.438,5.085,9.721C323.056,11.426,319.555,11.434,350,0
		c-30.445,11.434-24.695,11.393,7.428,12.205C325.309,11.394,332.565,11.12,362.963,0c-30.324,11.12-19.671,11.122,9.88,9.634
		C344.637,10.625,378.721,4.02,387.037,0c-2.782,4.02,4.165,3.332,7.211,2.492C397.246,1.661,400,0,400,0s-0.19,1.579,0,3.99
		c-0.253,1.516-2.701,5.002-3.862,7.78c-1.16,2.779-1.032,4.85,3.862,3.537c-4.896,4.846-12.335,10.91-13.067,15.559
		c-2.979,3.591,0.54,6.23,13.067,2.108c-8.352,3.938-14.211,9.809-17.288,15.219C376.56,59.016,381.542,68,400,56.015
		c-27.688,18.588-25.166,44.65,0,27.438c-25.162,17.295-23.755,47.721,0,30.857c-23.741,17.029-22.826,54.201,0,33.299
		c-22.818,21.009-20.286,54.579,0,34.765c-20.285,19.833-16.943,58.263,0,35.253c-16.938,23.074-13.462,57.959,0,34.766
		c-13.462,23.197-12.256,59.383,0,33.299c-12.256,26.088-12.078,57.558,0,30.856c-12.078,26.701-13.307,56.823,0,27.438
		c-13.307,29.386-17.857,44.512,0,23.041c-17.857,21.471-20.418,27.342,0,17.666c-20.418,9.676-20.917,10.502,0,11.317
		C379.083,395.197,379.13,395.09,400,400z"/>
	<path id="_x35_0px_top" opacity="0.8" fill="#CCCCCC" enable-background="new    " d="M400,0c-0.106,0.098-4.398,4.688-7.424,8.174
		c-3.579,3.483-5.288,5.835,0.174,1.546c-6.827,6.785-13.875,8.579-6.676,9.842c-4.536-1.043,6.531-2.484,13.926-6.599
		c-4.129,3.012-12.638,7.354-13.42,12.62c-7.092,3.123-15.379,3.621-8.773,9.417c-8.223-4.421-5.275-5.07,5.943-9.34
		c-11.261,4.307-12.313,11.682-10.929,18.986c-4.596,0.396-2.385,5.378-0.478,4.689c0.768-2.286-0.928-11.389,8.02-15.904
		c-8.945,4.517-6.479,13.853-6.502,15.992c-0.58,1.38,1.37,0.493,5.601-2.076c4.198-2.611,10.887-6.594,20.538-10.31
		c-9.651,3.724-16.224,8.348-20.422,11.739c-4.199,3.392-6.024,5.55-6.184,4.342c-0.157-1.209-4.132-12.135,3.824-15.857
		c-7.957,3.722-4.022,17.294-4.742,21.305c-0.718,4.012-0.603,4.816,0.26,2.061c0.861-2.755,0.403-11.792,4.735-19.298
		c-4.332,7.506-3.728,16.435-3.599,19.554C374.133,67.124,380.75,61.011,400,50c-19.25,11.011-25.822,17.359-26.158,11.258
		c-0.168-3.051-0.105-11.071,3.368-19.462c-3.475,8.391-3.587,17.021-4.365,20.35c-0.777,3.33-0.895,3.216-0.387-0.307
		c0.507-3.522-1.976-15.264,3.351-20.763c-5.324,5.5-2.829,17.125-2.627,20.836c0.405,7.422,6.088,2.422,22.829-11.912
		c-16.741,14.333-22.565,18.604-23.596,10.668c-0.515-3.968-7.062-20.38,1.285-21.328c-8.349,0.947-1.884,17.116-2.431,20.409
		c-0.549,3.292-0.874,3.102-1.11-0.495c-0.235-3.597-13.61-28.027-0.563-20.929c-13.047-7.098,0.513,18.266,1.34,23.192
		c1.652,9.852,5.3,7.66,13.759-11.518c-4.229,9.589-7.309,14.66-9.713,16.037c-2.405,1.377-4.138-0.938-5.673-6.122
		c-1.534-5.184-23.634-39.529-4.492-23.329c-19.142-16.2,2.634,16.49,2.853,19.51c0.215,3.012-0.374,2.633-1.968-0.839
		c-1.68-3.661-30.648-41.663-8.001-19.396c-22.647-22.268,6.692,17.391,8.656,22.827c1.963,5.436,3.002,8.276,3.114,7.251
		s-0.7-5.915-2.443-15.939c1.743,10.024,2.419,14.172,1.839,14.407c-0.58,0.235-2.416-3.442-5.695-9.066
		c-3.464-6.102-38.544-43.7-14.354-20.75c-24.188-22.949,3.487-1.53,11.598,12.706c-6.391-12.591-14.513-23.234-3.497-2.515
		C343.259,22.217,312.738,11.934,338,34.045c-25.262-22.111,9.395-4.618,19.144,13.969c-5.501-13.59,4.675,7.672,2.749,8.995
		c-2.176,0.549-19.271-29.446-15.906-7.009c-3.363-22.437,10.438,2.885,10.914,5.019c-1.71-5.643-24.443-40.572-10.728-10.826
		c-14.666-30.46-43.483-30.941-19.608-9.43c-23.875-21.512-25.313-21.354-1.557-0.236c-23.758-21.118-34.378-20.339-12.283,1.5
		c-22.095-21.838-17.408-22.091-0.426,5.635c-16.979-27.712-0.871-23.865,6.249,8.339c-7.642-32.689-42.714-35.027-21.487-12.856
		c-21.229-22.172-34.42-21.822-14.74-0.146c-19.684-21.673-2.036-18.094,5.371,13.003c-7.407-31.097-40.887-34.4-23.107-12.14
		c-17.813-22.266-33.479-22.052-17.255,1.009c-16.257-23.036,1.293-18.018,7.063,11.131c-5.771-29.148-38.463-34.426-26.36-10.166
		c-12.375-24.308-29.241-25.82-17.166-0.043c-12.188-25.695,5.155-16.729,8.762,10.209c-3.606-26.938-38.541-37.766-26.274-11.016
		c-12.661-26.848-28.873-28.955-15.905-0.763c-13.056-28.124,3.679-13.349,6.926,11.779c-3.247-25.128-38.758-41.768-23.242-12.579
		c-15.709-29.236-34.079-29.822-15.971-0.037c-18.143-29.757,0.803-8.775,4.448,12.616c-3.646-21.391-39.961-41.768-21.542-12.625
		c-18.459-29.153-35.576-28.664-16.249,0.028C90.481,8.719,109.359,25.278,114.31,50c-4.951-24.722-42.815-40.12-21.223-12.175
		C71.477,9.876,57.33,11,78.347,38.219C57.326,11.003,76.738,21.132,83.452,50c-2.238-9.623-7.843-16.771-13.487-21.083
		c-5.645-4.313-15.652-3.872-13.724-4.07c-6.49,3.252-4.551,8.496,6.006,15.109c-10.562-6.613-40.826-2.157-21.043-13.466
		c-21.827,10.934-22.264,19.902-9.197,3.781c-13.044,16.295-6.483,19.133,15.926,11.026c-22.409,8.107-28.504,6.679-15.565-9.533
		c-12.958,16.093-12.185,11.693,8.176-0.056C21.401,44.096,37.908,50.644,56.015,50c-18.107,0.644-35.167-3.239-17.648-16.846
		c-18.522,13.335-17.31,21.177-13.609,3.191C21.033,54.373,24.92,69.869,33.279,48.9c-8.359,20.969-11.531,8.069-17.651-8.816
		c6.1,16.878,6.189,17.318-3.134,1.69C21.825,57.417,27,79.751,21.721,55.161c5.279,24.59,0.115,2.296-9.227-13.347
		c9.334,15.628,9.316,15.459,3.067-1.408C21.83,57.281,25.339,71.797,32.974,50c-7.635,21.797-11.053,7.627-17.554-9.213
		c6.48,16.834,6.805,18.314-4.747,3.611c11.552,14.733,17.912,43.047,4.12,18.963c13.792,24.084,7.5-3.877-5.068-18.062
		c12.559,14.156,12.494,14.014-1.128,0.612C22.221,59.351,28.31,86.544,10.378,65.3c17.928,21.203,10.685-10.41-1.824-23.903
		C21.068,54.873,24.623,68.999,15.307,50c9.316,18.999,5.905,5.405-6.768-8.02c12.667,13.446,20.043,45.996,0.923,25.3
		c19.122,20.746,13.086-6.506-1.375-19.726c14.456,13.175,14.282,12.577-0.785,0.047C22.365,60.18,27.837,85.23,6.52,67.318
		c21.32,17.818,14.297-13.11,0.085-25.279C20.813,54.183,22.046,59.595,3.99,50c18.057,9.595,16.799,4.107,2.534-7.983
		c14.269,12.116,21.098,42.306-0.615,25.197c21.708,17.218,16.337-7.441,0.946-19.64c15.393,12.146,15.31,11.858-0.287-0.039
		c15.591,11.95,20.63,35.459-1.732,19.534C27.208,82.857,20.63,53.635,5.84,41.994C20.622,53.607,20.547,55.205,0,50
		c20.547,5.205,20.419,2.888,5.745-8.77c14.681,11.678,20.497,37.365-1.42,23.057c21.903,14.448,17.168-7.401,1.833-18.999
		c15.34,11.549,14.924,9.978-0.146-1.578C21.076,55.295,24.493,70.749,4,58.769c20.506,11.877,15.781-8.08,1.595-20.081
		C19.776,50.664,17.863,45.378,0,37.037c17.863,8.341,19.494,12.691,5.63,0.469c13.87,12.235,16.517,22.24-0.775,11.817
		c17.292,10.423,14.811,0.896,1.528-11.8c13.284,12.685,13.12,12.182-0.347-0.356c13.467,12.538,12.327,9.024-0.164-4.227
		C18.358,46.169,11.383,30.396,0,12.963c11.383,17.433,17.574,30.972,5.734,17.341c11.843,13.634,7.298,3.128-1.139-14.122
		C13.029,33.4,16.991,42.304,6.614,27.809c10.38,14.503,8.757,10.532-0.468-4.905C15.363,38.304,8.019,22.98,0,0
		c8.02,22.983,15.122,37.738,6.83,21.792c8.303,15.978,8.512,16.437,1.004,0.168C15.337,38.199,8.692,23.78,3.99,0
		c4.703,23.779,11.614,38.822,3.68,22.861c7.939,15.994,8.915,18.327,1.31,2.415c7.607,15.896,2.231,4.13,2.226-17.785
		c0.005,21.915,5.462,33.875-1.753,17.821c7.215,16.07,6.642,14.634,1.678-2.378c4.971,16.981-1.06,1.464,4.176-22.934
		c-5.235,24.398,0.921,40.214-3.599,23.125c4.517,17.12,6.007,20.956,2.171,3.768c3.849,17.177-0.676,5.289,12.051-14.018
		c-12.727,19.307-8.438,30.542-10.021,12.867c1.578,17.683-0.035,13.551,3.784-4.918C15.926,39.219,16.822,18.611,32.974,0
		C16.822,18.611,15.733,38.672,21.143,20.253c-5.455,18.508-3.75,22.883,0.928,4.773c-4.632,18.095-4.183,2.827,18.543-10.237
		C17.888,27.853,17.361,42.855,23.61,24.866c-6.286,18.012-6.981,15.837,4.426-1.424c-11.196,17.179,4.956-1.562,22.103-7.647
		c-17.147,6.085-34.171,19.278-17.104,3.654c-17.341,15.556-16.531,8.659,3.995-5.856C18.279,26.685,47.867,5.623,56.015,0
		c-8.148,5.623-33.922,22.608-15.944,11.859c-19.648,12.477-19.215,14.599,1.784,4.478c-18.592,10.581,10.48,0.834,20.609,1.054
		c-10.128-0.22-34.062,6.876-17.488-1.241c-18.25,7.681-7.93,2.925,5.274-0.69c-5.592,3.837,13.125,0.815,23.482,2.43
		c-10.356-1.615-16.581-2.547-17.858-4.311c-2.581-0.965,0.123-2.944,5.015-5.056C65.781,6.411,73.598,3.721,83.452,0
		C53.89,11.164,56.371,10.996,87.509,18.783c-31.139-7.787-18.554-8.804,13.893,0.296C68.956,9.979,83.092,9.029,114.309,0
		c-31.217,9.029-26.982,8.744,3.72,19.614c-30.702-10.871-14.43-11.294,15.903,0.175C103.599,8.32,116.141,7.71,147.609,0
		c-31.468,7.71-30.251,7.65,1.05,16.96c-31.301-9.31-19.522-9.764,9.712,5.785c-29.233-15.549-16.643-15.092,13.022-5.588
		C141.728,7.652,153.909,8.553,182.374,0c-28.465,8.553-28.064,8.6,0.053,17.337c-28.117-8.738-14.806-7.194,10.357,5.861
		c-25.161-13.056-12.682-11.5,13.965-5.738C180.103,11.699,193.94,13.107,217.627,0c-23.686,13.107-24.287,13.064,1.67,17.316
		c-25.957-4.251-12.765-2.73,10.563,5.375c-23.325-8.105-11.586-7.179,13.139-5.971c-24.725-1.208-12.748-1.062,9.395-16.72
		c-22.143,15.659-21.813,15.684,4.313,19.191c-26.125-3.507-11.419-3.64,14.824-0.425c-26.243-3.215-9.975-3.513,14.164-18.766
		c-24.139,15.253-26.444,15.322,0.892,17.825c-27.336-2.503-14.974-2.778,13.985-0.563c-28.959-2.214-10.416-3.3,15.979-17.262
		c-26.396,13.962-32.664,14.357-3.719,10.442c-28.945,3.916-28.027,3.896,1.128,6.262c-29.155-2.366-21.181-2.774,7.781,3.242
		c-28.962-6.016-25.294-6.291,4.424-3.248c-29.718-3.043-18.486-4.418,13.299-2.259c-31.785-2.16-25.856-2.76,4.524-14.439
		c-30.382,11.68-26.987,11.567,4.478,19.906c-31.465-8.338-41.514-7.525-10.018-2.681c-31.496-4.845-12.222-5.737,14.944,12.785
		c-27.134-18.496-21.877-18.138,4.229,1.713c-26.134-19.943-39.813-20.192-7.971-13.974c-31.842-6.218-17.621-6.062,10.349,10.846
		c-27.867-16.91-26.932-17.084,4.104-8.462c-30.995-8.85-26.687-9.266,2.926-20.134c-29.61,10.868-33.059,11.301-2.322,20.741
		c-30.759-9.129-27.764-8.22-1.146,8.898c-26.694-17.131-34.869-18.256-3.107-12.657c-31.762-5.599-18.542-2.129,3.753,17.637
		c-21.979-18.75-19.381-17.314,2.166-0.507c-21.234-18.296-28.479-22.109,2.446-18.422c-30.92-3.691-25.229-1.614,0.771,11.146
		c-25.523-13.025-19.366-12.466,6.254-10.414C351.831,11.16,375.375,5.843,384.693,0c-10.993,8.962-34.906,12.56-9.942,19.162
		c-25.471-4.997-9.417-1.825,8.187-9.71c-16.858,7.45-13.462,6.533,0.867,3.712C375.743,9.321,394.363,1.134,396.011,0
		C394.435,4.03,399.575,0.392,400,0z"/>
	<path id="_x35_0px_bottom" opacity="0.8" fill="#CCCCCC" enable-background="new    " d="M400,350
		c-28.45,3.457-27.706,4.169,0,12.963c-27.692-6.661-2.612,14.54,0,24.074c0,7.406,0,12.963,0,12.963s-1.384,0-3.989,0
		c-2.604,0-6.433,0-11.316,0c-4.939-0.23-13.593-10.286-17.667,0c-6.585-10.609-17.597-16.088-23.041,0
		c-5.322-16.477-21.866-18.904-27.438,0c-5.35-19.57-23.901-20.813-30.856,0c-3.766-21.301-27.989-22.223-33.299,0
		c-5.22-23.257-30.89-29.343-34.766,0c-1.232-29.951-25.86-31.477-35.253,0c6.793-31.682-26.222-28.338-34.765,0
		c3.727-28.662-27.311-26.843-33.299,0c0.854-27.134-25.944-31.895-30.857,0c4.08-31.895-13.976-29.438-27.437,0
		c12.407-29.438-8.553-11.298-23.041,0c5.888-11.298-12.783,0-17.667,0c-4.885,0-8.712,0-11.317,0C1.384,400,0,400,0,400
		s0-5.557,0-12.963c0-7.407,13.961-26.523,0-24.074c6.98-5.881,13.929-10.956,15.235-13.809c1.85-2.598-1.902-3.043-15.235,0.846
		c8.888-2.593,15.556-4.783,19.408-6.109c4.698-0.695,7.25,0.049,2.518-0.926c0.306,2.588-8.152,3.055-17.937,7.035
		c9.972-3.98,20.46-5.143,20.983-9.928c6.847,0.586,9.668,1.617,3.554-1.967c3.313,5.84-5.682,5.258-13.22,11.895
		c7.545-6.637,14.836-9.287,14.831-15.139c5.429,0.492,8.894,3.25,4.483-1.276c4.802,8.319,22.262,29.81-1.646,16.415
		c23.909,13.395,7.67-6.6,3.163-16.52c6.482,6.26,15.04,17.578,6.081,1.176c11.91,19.259,39.184,32.421,13.797,15.344
		c25.387,17.077,14.346,16.857-4.394-9.564c18.992,26.418,35.886,26.108,14.534,4.604c21.364,21.511,39.038,20.609,17.297,4.962
		c21.741,15.647,38.098,14.99,15.062,0c23.037,14.99,40.173,14.442,15.795,0c24.385,14.442,57.597,14.332,30.455,0
		c27.144,14.332,58.909,14.551,31.755,0c27.154,14.551,61.167,10.944,32.301,0c28.865,10.944,60.619,9.071,32.098,0
		c28.521,9.071,61.527,8.671,31.141,0c30.389,8.671,59.874,7.42,29.428,0c30.446,7.42,61.508,4.592,26.967,0
		c34.541,4.592,40.82,3.711,23.75,0c17.07,3.711,17.623,3.679,19.783,0c-2.16,3.679-2.729,3.726,15.062,0
		c-17.784,3.726-17.83,3.708,9.59,0C369.396,353.708,371.55,353.457,400,350z"/>
	<path id="_x32_5px_left" fill="#EBEBEB" d="M25,400c23.596-3.694,20.861-2.868-2.961-0.826c23.823-2.042,15.574-0.139-9.539,0.826
		c25.113-0.965,18.694-0.813-8.594,0c27.288-0.813,24.54-1.356-3.906,0c28.446-1.356,28.35-1.381,0-3.989
		c28.35,2.607,26.362,1.82,0-11.317c26.362,13.138,24.128,11.785,3.239-10.563c20.89,22.35,15.247,17.741-3.239-7.104
		c18.486,24.845,17.021,23.023,5.026-5.57c11.996,28.595,9.105,24.426,5.299-5.922c3.807,30.347-2.426,17.451,4.566-9.766
		c-6.994,27.211-8.031,24.584-4.157-2.28C6.857,370.354,6.438,369.536,0,343.984c6.439,25.552,2.415,7.855,19.372-12.18
		c-16.896,19.944-19.293,3.01-0.086-12.988C0.024,334.762-0.032,339.189,0,316.548c-0.032,22.642-0.3,1.239,19.673-14.549
		c-19.908,15.687-19.327,3.321,0.988-14.074C0.235,305.199-0.212,310.323,0,285.691c-0.214,24.632,0.367,9.77,18.086-9.344
		c-17.614,19.012-15.595-1.604,5.829-11.707c-21.43,9.81-21.612,4.951-6.129-9.509C2.248,269.561,1.854,272.297,0,252.393
		c1.858,19.901,4.082,2.555,20.337-12.388c-16.229,14.896-14.144,1.57-0.257-15.944C6.183,241.563,6.646,239.164,0,217.627
		c6.646,21.531,10.291,7.999,19.905-13.238c-9.611,21.231-3.6,5.7,0.367-16.043c-3.969,21.74-0.82,12.012-20.271-5.972
		c19.448,17.932,22.761,11.442,20.458-12.386c2.31,23.815,6.204,9.435,0.036-15.097c6.15,24.509,5.398-1.391-20.494-7.281
		c25.823,5.42,32.062,7.994,19.121-10.378c12.953,18.353,13.929,3.261-0.875-14.035c14.8,17.291,11.765-4.931-18.246-8.886
		c29.989,3.709,32.604,10.718,15.862-9.374c16.744,20.09,16.053,8.153-0.997-12.945C31.913,113.086,28.484,94.174,0,83.452
		c28.474,10.527,30.4,14.101,14.759-9.86c15.653,23.944,13.628,12.788,1.26-11.752C28.369,86.353,22.113,61.882,0,56.015
		c22.11,5.773,24.313,11.587,15.752-7.196c8.579,18.761,5.979,8.14-1.399-8.294c7.362,16.418,2.524,1.924-14.353-7.55
		c16.9,9.455,16.854,8.896,8.685-6.751c8.158,15.625,3.296,5.22-8.685-10.917C12.008,31.344,8.765,24.956,0,3.99
		C8.764,24.519,7.527,21.393,0,0c7.527,21.393,8.668,23.63,5.109,1.177C9.23,23.71,9.657,23.321,12.5,0
		c-2.139,23.346-0.385,27.289,11.927,6.959C12.645,27.552,13.799,21.834,25,0c-11.201,21.834-10.421,31.53,6.203,14.825
		C14.649,31.791,13.167,25.935,25,3.99c-11.833,22.078-7.721,35.405,9.313,20.621c-16.957,15.1-19.964,9.706-9.313-9.304
		c-10.651,19.017-5.407,30.65,11.416,16.407C19.602,46.214,20.077,50.858,25,32.974c-4.923,17.884-3.775,19.03,11.62,4.305
		C21.225,52.315,27.519,81.837,25,56.015c2.508,25.836-0.414,11.272,10.361-8.259c-10.683,19.578-6.868,38.051,0.045,11.324
		C28.466,85.947,31.612,109.261,25,83.452c6.612,25.809,5.903,17.007,10.449-10.424c-4.543,27.434-3.358,41.546-0.002,15.58
		C32.091,114.575,32.898,135.82,25,114.309c7.898,21.511,7.792,15.113,10.386-8.977c-2.594,24.09-2.235,36.599-0.059,15.401
		c-2.176,21.199-6.48,50.647-10.327,26.875c3.847,23.772,7.039,10.647,9.777-10.043c-2.737,20.691-7.585,40.178-0.492,16.557
		c-7.097,23.64-15.177,49.522-9.285,28.251c-5.892,21.271-2.052,11.055,8.457-10.077c-10.507,21.134-15.303,33.56-0.336,17.177
		C18.151,205.869,7.983,233.79,25,217.627c-17.017,16.163-12.857,3.1,7.753-9.626c-20.601,12.74-23.914,24.628-0.031,16.91
		C8.796,233.001,3.82,261.223,25,252.393c-21.18,8.83-17.86-5.99,7.455-9.838c-25.163,4.084-24.656,16.188-0.237,15.857
		C7.488,261.236,1.55,299.003,25,285.691c-23.45,13.312-17.458-7.933,6.678-11.221c-23.703,3.816-25.473,20.321-0.304,14.456
		C5.807,297.734,0.681,326.275,25,316.548c-24.319,9.728-20.323-6.733,6.442-11.866c-26.376,5.539-25.538,16.026,0.372,14.252
		c-26.194,3.883-24.583,22.017,0.029,14.805C7.205,343.07,6.405,365.302,25,343.984c-18.595,21.316-16.427,4.752,7.792-5.471
		c-23.934,9.186-24.786,0.813-0.313-6.271c-24.187,7.129-10.243,13.393,7.178,10.391c-15.443,7.146-28.653,13.696-6.886-0.113
		c-22.878,13.385,3.118,34.752,10.271,13.676c-6.187,22.891,6.818,35.541-1.114,7.697c7.789,27.934-8.004,33.086-16.926,3.133
		c8.921,29.953,31.552,24.496,19.191-1.078c12.518,25.56,13.054,23.328,3.071-2.865c9.693,25.958-29.961,20.309-15.881-7.991
		c-14.079,28.302,29.605,33.604,17.877,8.614c12.171,25.259,15.477,26.191-0.143,3.152c15.451,23.056-11.332,29.3-19.415-0.586
		c8.083,29.886,34.064,24.656,16.021,3.903c18.059,20.769,17.268,21.41-4.447,5.774c21.712,15.638,6.55,20.386-16.274,8.742
		c22.824,11.644,38.287,6.836,16.028-7.715c22.259,14.551,8.982,18.729-14.301,8.385c23.283,10.344,33.73,7.115,9.143,0.078
		c24.587,7.037,13.271,10.672-10.87,10.569C49.141,396.112,48.596,396.306,25,400z"/>
	<path id="_x32_5px_top" fill="#EBEBEB" d="M400,0c-0.106,0.098-4.229,4.521-7.133,7.902c-3.366,3.383-5.016,5.699,0.17,1.653
		c-6.537,6.567-12.983,8.435-6.414,9.473c-3.932-0.87,6.312-2.475,13.377-6.528c-3.926,2.893-12.449,7.052-13.13,12.041
		c-7.136,2.97-16.454,2.902-8.698,8.877c-9.225-4.788-4.608-4.53,6.44-9.116c-11.112,4.636-15.946,8.55-11.789,17.392
		c-7.37-3.012-5.313,0.667-0.605,2.958c-2.021-5.604-1.938-12.147,9.325-15.61c-11.258,3.464-10.714,8.552-6.773,12.893
		c-3.885-3.411-0.091-4.099,6.561-5.523C382.599,31.314,391.894,28.393,400,25c-8.106,3.393-16.782,7.014-18.691,12.349
		c-6.29,2.221-9.667,4.049-7.512,6.84c-3.34-3.299-10.73-14.24,3.557-13.444c-14.289-0.795-5.727,14.967-6.111,19.039
		c-1.717,2.124-2.001,1.896-0.516-0.027c-0.109-4.291-12.298-23.128,4.62-19.27c-16.917-3.858-6.917,9.996-3.49,14.567
		c-3.074-3.247-1.504-5.615,5.786-5.95c-0.498-6.787,9.781-9.417,18.368-14.103c-8.59,4.686-19.259,7.009-18.528,13.89
		c-7.691-0.057-10.656,0.777-6.684,5.513c-5.128-6.236-20.271-23.789,1.215-14.93c-21.486-8.859-4.001,13.656-2.777,19.223
		c-2.372,0.216-3.611-1.349-1.245-0.393c-2.834-6.945-26.418-33.282-0.634-19.583c-25.784-13.699-4.506,8.842,0.782,17.113
		c-4.365-4.982-2.9-5.434,4.21-3.07c-2.986-8.601,1.57-12.975,12.345-17.762c-10.773,4.788-16.623,7.851-12.707,17.033
		c-8.328-3.85-13.553-8.049-6.029,2.001c-9.522-12.985-33.712-32.2-5.152-16.849c-28.56-15.351-4.862,3.478,3.941,17.398
		c-8.373-10.686-13.05-16.431-2.334-1.14c-12.604-18.331-38.949-31.969-9.942-17.038c-29.007-14.931-3.104-1.899,10.112,16.587
		c-11.216-15.804-5.753-9.909,3.883,0.207c-8.91-13.733-27.768-30.068,0.563-18.199c-28.329-11.869-12.775,0.814-1.334,16.595
		c-12.626-13.65-24.871-24.743-6.863-2.029c-19.315-23.811-46.218-27.709-16.298-14.148c-29.92-13.562-11.674-13.363,11.779,10.067
		c-23.398-23.367-30.066-23.922-5.032-2.003c-25.073-21.938-46.503-20.521-17.396-8.271c-29.104-12.249-7.539-13.664,17.454,8.374
		c-24.951-22.016-17.728-21.333,5.526,2.06C331.563,12.171,313.876,11.761,343.985,25c-30.109-13.239-20.277-13.446,4.677,8.667
		c-24.979-22.112-42.3-21.14-14.559-4.011c-27.741-17.129-42.595-15.641-14.958-4.334c-27.637-11.307-36.353-10.832-8.872,0.22
		c-27.479-11.051-31.859-10.799-4.431,0.099c-27.43-10.898-16.995-11.479,10.704-0.64c-27.699-10.839-51.744-9.764-25.398,1.871
		c-26.346-11.635-38.318-11.422-14.348,0.913c-23.972-12.335-17.183-12.46,8.891-2.784c-26.072-9.677-48.85-9.353-25.586,4.676
		c-23.265-14.028-37.92-14.035-16.605,0.979c-21.314-15.014-15.752-14.963,8.893-5.655c-24.645-9.309-46.979-10.552-27.685,6.477
		c-19.313-17.026-37.61-19.015-17.313-0.156C187.091,12.458,193.883,13.136,217.627,25c-23.744-11.864-49.25-14.746-28.477,5.452
		c-20.799-20.195-38.684-22.125-16.493-0.711C150.463,8.326,157.515,8.936,182.374,25c-24.858-16.064-52.303-17.761-26.759,4.02
		c-25.547-21.78-41.967-21.106-16.11-0.01C113.648,7.913,119.25,7.549,147.609,25C119.25,7.549,96.258,8.397,122.396,29.001
		c-26.138-20.604-43.538-19.632-16.124,0C78.857,9.369,85.443,8.893,114.31,25C85.443,8.893,61.814,10.546,90.157,29.256
		c-9.448-6.236-17.222-10.232-22.374-12.139c-5.153-1.908-7.72-1.704-6.645,0.39c1,2.135,5.646,6.168,14.771,12.003
		c-9.125-5.835-14.885-9.656-16.689-12.015c-2.417-2.005-0.922-2.624,3.237-1.347S73.735,20.402,83.452,25
		c-9.717-4.598-18.583-7.048-25.02-7.748c-6.841-0.415-26.071,7.347-10.454,2.75c-15.624,7.245,2.643,6.881,13.569,10.858
		c-10.926-3.978-42.736,6.756-23.769-6.343c-20.265,13.096-19.618,19.986-7.517,3.312c-12.041,16.758-4.86,11.043,18.219,4.127
		c-23.079,6.916-29.925,13.97-20.142-3.326c-9.859,17.249-11.333,11.9,4.364-3.813C17.459,40.452,42.223,25.765,56.015,25
		c-13.792,0.765-38.249,17.468-25.269,1.036C17.401,42.559,19.665,49.75,21.663,31.78c-1.993,17.988-1.571,18.258,14.387,3.389
		C19.86,50.04,20.268,51.786,13.042,35.648c7.219,16.14,8.214,19.668,12.427,1.637c-4.213,18.031-5.601,13.221-12.872-2.878
		c7.276,16.091,4.096,6.408,20.377-9.407c-16.282,15.815-13.082,25.587-21.325,9.906c8.233,15.691,10.598,24.015,6.447,6.324
		c4.15,17.691,1.977,10.119-9.279-3.982c11.25,14.103,13.3,21.349,3.449,5.812c9.851,15.538,7.211,6.379-3.796-7.84
		c11.01,14.205,8.705,7.429,6.837-10.22c1.869,17.649,4.188,24.488-7.14,10.477c11.324,14.027,14.088,23.85,1.659,9.648
		c12.429,14.201,10.116,5.928-2.731-7.102c12.844,13.03,14.572,19.36-0.315,7.339c14.887,12.021,12.37,3.184-0.413-9.855
		C19.146,48.528,15.605,38.966,3.99,25c11.616,13.966,15.143,23.492,2.292,10.523c12.853,12.988,15.25,21.449-0.178,9.964
		c15.428,11.485,13.707,5.201,0.315-7.417c13.391,12.618,14.827,17.978-1.326,7.304c16.153,10.674,13.906,2.76,0.567-9.866
		C18.993,48.114,14.672,36.992,0,25c14.672,11.992,18.864,22.71,5.732,9.95c13.138,12.775,14.604,17.623-0.039,5.957
		c14.646,11.652,13.01,6.258,0.725-7.132c12.284,13.387,11.822,12.047-0.487-1.324C18.235,45.804,11.261,30.169,0,12.5
		c11.261,17.669,17.544,31.352,5.748,17.695c11.8,13.66,7.177,3.024-1.163-14.369c8.336,17.359,12.373,26.391,2.03,11.876
		c10.345,14.522,8.752,10.629-0.467-4.813C15.359,38.294,8.019,22.98,0,0c8.02,22.983,15.122,37.738,6.83,21.792
		c8.303,15.978,8.512,16.437,1.004,0.168C15.337,38.199,8.692,23.78,3.99,0c4.703,23.779,11.614,38.822,3.68,22.861
		c7.939,15.994,8.915,18.327,1.31,2.415c7.607,15.896,2.231,4.13,2.226-17.785c0.005,21.915,5.462,33.875-1.753,17.821
		c7.215,16.07,6.642,14.634,1.678-2.378c4.971,16.981-1.06,1.464,4.176-22.934c-5.235,24.398,0.921,40.214-3.599,23.125
		c4.517,17.12,6.007,20.956,2.171,3.768c3.849,17.177-0.676,5.289,12.051-14.018c-12.727,19.307-8.438,30.542-10.021,12.867
		c1.578,17.683-0.035,13.551,3.784-4.918C15.926,39.219,16.822,18.611,32.974,0C16.822,18.611,15.733,38.672,21.143,20.253
		c-5.455,18.508-3.75,22.883,0.928,4.773c-4.632,18.095-4.183,2.827,18.543-10.237C17.888,27.853,17.361,42.855,23.61,24.866
		c-6.286,18.012-6.981,15.837,4.426-1.424c-11.196,17.179,4.956-1.562,22.103-7.647c-17.147,6.085-34.171,19.278-17.104,3.654
		c-17.341,15.556-16.531,8.659,3.995-5.856C18.279,26.685,47.867,5.623,56.015,0c-8.148,5.623-33.922,22.608-15.944,11.859
		c-19.648,12.477-19.214,14.599,1.785,4.478c-18.592,10.581,10.48,0.834,20.608,1.054c-10.128-0.22-34.062,6.876-17.487-1.241
		c-18.25,7.681-7.931,2.925,5.274-0.69c-5.592,3.837,13.125,0.815,23.482,2.43c-10.356-1.615-16.581-2.547-17.858-4.311
		c-2.581-0.965,0.123-2.944,5.015-5.056S73.598,3.721,83.452,0C53.89,11.164,56.371,10.996,87.509,18.783
		c-31.139-7.787-18.554-8.804,13.893,0.296C68.956,9.979,83.092,9.029,114.309,0c-31.217,9.029-26.982,8.744,3.72,19.614
		c-30.702-10.871-14.43-11.294,15.903,0.175C103.599,8.32,116.141,7.71,147.609,0c-31.468,7.71-30.251,7.65,1.05,16.96
		c-31.301-9.31-19.522-9.764,9.712,5.785c-29.233-15.549-16.643-15.092,13.022-5.588C141.728,7.652,153.909,8.553,182.374,0
		c-28.464,8.553-28.064,8.6,0.053,17.337c-28.117-8.738-14.806-7.194,10.357,5.861c-25.161-13.056-12.682-11.5,13.965-5.738
		C180.102,11.699,193.94,13.107,217.627,0c-23.686,13.107-24.287,13.064,1.67,17.316c-25.957-4.251-12.765-2.73,10.563,5.375
		c-23.325-8.105-11.586-7.179,13.139-5.971c-24.725-1.208-12.748-1.062,9.395-16.72c-22.143,15.659-21.813,15.684,4.313,19.191
		c-26.125-3.507-11.419-3.64,14.824-0.425c-26.243-3.215-9.975-3.513,14.164-18.766c-24.139,15.253-26.444,15.322,0.892,17.825
		c-27.336-2.503-14.974-2.778,13.985-0.563c-28.959-2.214-10.416-3.3,15.979-17.262c-26.396,13.962-32.664,14.357-3.719,10.442
		c-28.945,3.916-28.027,3.896,1.128,6.262c-29.155-2.366-21.181-2.774,7.781,3.242c-28.962-6.016-25.294-6.291,4.424-3.248
		c-29.718-3.043-18.486-4.418,13.299-2.259c-31.785-2.16-25.856-2.76,4.524-14.439c-30.382,11.68-26.987,11.567,4.478,19.906
		c-31.465-8.338-41.514-7.525-10.018-2.681c-31.496-4.845-12.222-5.737,14.944,12.785c-27.134-18.496-21.877-18.138,4.229,1.713
		c-26.134-19.943-39.813-20.192-7.971-13.974c-31.842-6.218-17.621-6.062,10.349,10.846c-27.867-16.91-26.932-17.084,4.104-8.462
		c-30.995-8.85-26.687-9.266,2.926-20.134c-29.61,10.868-33.059,11.301-2.322,20.741c-30.759-9.129-27.764-8.22-1.146,8.898
		c-26.694-17.131-34.869-18.256-3.107-12.657c-31.762-5.599-18.542-2.129,3.753,17.637c-21.979-18.75-19.381-17.314,2.166-0.507
		c-21.234-18.296-28.479-22.109,2.446-18.422c-30.92-3.691-25.229-1.614,0.771,11.146c-25.523-13.025-19.366-12.466,6.254-10.414
		C351.831,11.16,375.375,5.843,384.693,0c-10.993,8.962-34.906,12.56-9.942,19.162c-25.471-4.997-9.418-1.825,8.187-9.71
		c-16.858,7.45-13.462,6.533,0.867,3.712C375.743,9.321,394.363,1.134,396.011,0C394.435,4.03,399.575,0.392,400,0z"/>
	<path id="_x32_5px_bottom" fill="#EBEBEB" d="M400,375c-19.412-12.479-2.177,4.357,0,12.5c-0.446,5.641,0,12.5,0,12.5
		s-1.384,0-3.989,0c-2.604,0-6.433,0-11.316,0c-4.939-0.231-13.593-10.286-17.667,0c-6.585-10.609-17.597-16.088-23.041,0
		c-5.322-16.477-21.866-18.904-27.438,0c-5.35-19.57-23.901-20.813-30.856,0c-3.766-21.301-27.989-22.223-33.299,0
		c-5.22-23.257-30.89-29.343-34.766,0c-1.232-29.951-25.86-31.477-35.253,0c6.793-31.682-26.222-28.338-34.765,0
		c3.727-28.662-27.311-26.843-33.299,0c0.854-27.134-25.944-31.895-30.857,0c4.08-31.895-13.976-29.438-27.437,0
		c12.407-29.438-8.553-11.298-23.041,0c5.888-11.298-12.783,0-17.667,0c-4.885,0-8.712,0-11.317,0C1.384,400,0,400,0,400
		s0-6.25,0-12.5s1.384-13.45,0-12.5c1.384-0.95,6.624-4.016,3.989,0c3.548-2.008,19.522-6.631,12.97-8.969
		c12.024-0.772,9.398-0.396-1.653,8.969c10.28-6.469,37.484-7.266,12.448-15.729c26.507,6.779,33.93,8.518,5.741-2.463
		c28.34,11.375,29.466,12.039-0.521,18.191c30.011-6.152,33.09-6.578,4.493-19.098c28.714,12.326,35.499,12.127,6.5,1.558
		c29.02,10.595,40.164,9.365,12.047,17.54c28.116-8.175,28.75-8.243-0.305-10.656c29.056,2.413,40.364,1.665,13.663,5.328
		c26.701-3.663,38.106-4.109,14.08,5.328c24.026-9.438,40.112-10.087,15.062,0c25.051-10.087,41.744-10.582,15.795,0
		c25.949-10.582,59.011-10.667,30.455,0c28.556-10.667,59.858-10.45,31.755,0c28.103-10.45,59.668-13.895,32.301,0
		c27.367-13.895,57.828-15.868,32.098,0c25.73-15.868,58.58-16.217,31.141,0c27.439-16.217,55.784-17.395,29.428,0
		c26.356-17.395,56.317-19.729,26.967,0c29.352-19.729,39.738-21.157,23.75,0c15.988-21.157,16.737-21.244,19.783,0
		c-3.045-21.244-3.769-20.779,15.062,0c-18.69-20.775-13.782-16.322,9.59,0C374.267,358.686,380.588,362.521,400,375z"/>
	<path id="_x32_5px_right" fill="#EBEBEB" d="M400,400c-20.87-4.91-22.296-2.63-12.5,0c-9.798-2.63-10.208-2.178-12.5,0
		c2.292-2.178,2.318-2.171,0-3.989c2.318,1.818,2.933,1.051,0-11.317c2.933,12.369,5.518,7.552,0-17.666
		c5.518,25.218,11.43,7.375,0-23.041c11.43,30.416,12.918-1.021,0-27.438c12.918,26.416,12.729-5.114,0-30.856
		c12.729,25.742,11.575-9.711,0-33.299c11.575,23.586,8.385-7.947,0-34.766c8.385,26.816,5.13-10.619,0-35.253
		c5.13,24.634,2.456-5.311,0-34.765c2.456,29.455,1.53-6.316,0-33.299c1.53,26.983,0.011-4.032,0-30.857
		c0.011,26.825-1.618,2.691,0-27.438c-0.539,10.043-1.396,14.133-2.073,14.022c-0.678-0.111-1.175-4.422-0.995-11.184
		c0.181-6.761-11.521-28.86,3.068-25.879c-14.589-2.982-5.979,11.197-4.709,14.502c-3.104-2.719-14.217-18.697-0.646-9.236
		c-12.85-15.768-21.606-23.777,5.354-22.933c-26.962-0.887-29.416-0.478-5.462,13.595c-24.271-13.714-27.604-15.576,0.539-6.208
		C342.207,12.082,349.071,11.258,375,3.99c-26.232,8.045-34.151,7.792-4.182,11.803C340.903,11.445,350.966,10.169,375,0
		c-24.034,10.169-24.688,10.723,1.113,8.4c-24.265,1.577,4-4.672,11.387-8.4c-2.588,3.728,3.698,3.125,6.717,2.337
		C397.186,1.558,400,0,400,0s-0.19,1.579,0,3.99c-0.253,1.516-2.701,5.002-3.862,7.78c-1.16,2.779-1.032,4.85,3.862,3.537
		c-4.896,4.846-12.335,10.91-13.067,15.559c-2.979,3.591,0.54,6.23,13.067,2.108c-8.352,3.938-14.211,9.809-17.288,15.219
		C376.56,59.016,381.542,68,400,56.015c-27.688,18.588-25.166,44.65,0,27.438c-25.162,17.295-23.755,47.721,0,30.857
		c-23.741,17.029-22.826,54.201,0,33.299c-22.818,21.009-20.286,54.579,0,34.765c-20.285,19.833-16.943,58.263,0,35.253
		c-16.938,23.074-13.462,57.959,0,34.766c-13.462,23.197-12.256,59.383,0,33.299c-12.256,26.088-12.078,57.558,0,30.856
		c-12.078,26.701-13.307,56.823,0,27.438c-13.307,29.386-17.857,44.512,0,23.041c-17.857,21.471-20.418,27.342,0,17.666
		c-20.418,9.676-20.917,10.502,0,11.317C379.083,395.197,379.13,395.09,400,400z"/>
</g>
<g id="Tile_Square">
	<path fill="#7B2A3B" d="M198.586,198.586c0.78,0.781,0.78,2.047,0,2.828l-67.882,67.883c-0.781,0.781-2.049,0.781-2.829,0
		l-67.882-67.883c-0.781-0.781-0.781-2.047,0-2.829l67.882-67.882c0.78-0.781,2.048-0.781,2.829,0L198.586,198.586z"/>
	<path fill="#86DDB2" d="M269.296,127.875c0.781,0.781,0.781,2.047,0,2.828l-67.882,67.882c-0.78,0.781-2.048,0.781-2.828,0
		l-67.882-67.882c-0.781-0.781-0.781-2.048-0.001-2.829l67.882-67.882c0.781-0.781,2.048-0.781,2.829,0L269.296,127.875z"/>
	<path fill="#F8E7A2" d="M340.007,198.586c0.781,0.781,0.781,2.047,0,2.828l-67.883,67.883c-0.78,0.78-2.047,0.78-2.828,0
		l-67.882-67.883c-0.78-0.781-0.78-2.047,0-2.828l67.882-67.882c0.781-0.781,2.048-0.781,2.828,0L340.007,198.586z"/>
	<path fill="#E57661" d="M269.296,269.297c0.781,0.78,0.781,2.047,0,2.828l-67.882,67.882c-0.781,0.781-2.048,0.781-2.829,0.001
		l-67.882-67.883c-0.78-0.781-0.78-2.047,0.001-2.828l67.882-67.883c0.78-0.781,2.048-0.781,2.828,0L269.296,269.297z"/>
	<line fill="none" x1="200.002" y1="59.407" x2="200" y2="200"/>
</g>
<g id="Text" display="none">
	<g display="inline">
		<path fill="#262222" stroke="#DBDADA" stroke-width="3" stroke-miterlimit="10" d="M193.208,177.609l-15.712,6.019
			c-2.239-7.137-6.335-10.707-12.291-10.707c-2.788,0-4.995,0.792-6.62,2.375c-1.626,1.584-2.439,3.432-2.439,5.543
			c0,2.45,0.96,4.403,2.883,5.86c1.921,1.458,5.944,3.369,12.069,5.733c5.575,2.07,9.957,4.118,13.146,6.146
			c3.188,2.027,5.765,4.783,7.729,8.268c1.964,3.484,2.946,7.529,2.946,12.133c0,8.066-2.778,14.688-8.331,19.861
			c-5.554,5.174-12.999,7.76-22.333,7.76c-15.67,0-25.68-7.918-30.03-23.758l16.599-4.75c2.027,8.701,6.652,13.051,13.875,13.051
			c3.294,0,5.965-0.854,8.015-2.565c2.048-1.711,3.073-3.959,3.073-6.748c0-2.111-0.719-4-2.154-5.67
			c-1.437-1.668-4.731-3.431-9.883-5.289c-6.631-2.365-11.573-4.509-14.825-6.433c-3.253-1.92-5.935-4.666-8.046-8.235
			c-2.112-3.568-3.167-7.634-3.167-12.195c0-7.771,2.502-14.138,7.507-19.102c5.005-4.962,11.625-7.444,19.862-7.444
			C180.114,157.463,189.49,164.178,193.208,177.609z"/>
		<path fill="#262222" stroke="#DBDADA" stroke-width="3" stroke-miterlimit="10" d="M206.639,158.793h29.523
			c6.926,0,12.152,0.549,15.68,1.647c3.526,1.099,6.483,3.506,8.87,7.222c2.386,3.717,3.579,8.342,3.579,13.875
			c0,9.672-4.118,15.881-12.354,18.626c9.799,3.463,14.697,10.54,14.697,21.223c0,5.619-1.33,10.359-3.99,14.226
			c-2.66,3.863-5.945,6.44-9.853,7.729c-3.907,1.289-9.45,1.932-16.63,1.932h-29.523V158.793z M224.885,193.702h6.146
			c6.123,0,9.979-1.098,11.562-3.295c1.584-2.195,2.376-4.708,2.376-7.539c0-2.618-0.792-4.951-2.376-7
			c-1.583-2.048-4.973-3.073-10.168-3.073h-7.539L224.885,193.702L224.885,193.702z M224.885,230.447h9.313
			c8.743,0,13.114-3.771,13.114-11.309c0-4.193-1.088-7.148-3.264-8.863s-5.459-2.572-9.852-2.572h-9.313L224.885,230.447
			L224.885,230.447z"/>
	</g>
</g>
</svg>
