<?xml version="1.0" encoding="utf-8"?>
<!-- Generator: Adobe Illustrator 16.0.0, SVG Export Plug-In . SVG Version: 6.00 Build 0)  -->
<!DOCTYPE svg PUBLIC "-//W3C//DTD SVG 1.1//EN" "http://www.w3.org/Graphics/SVG/1.1/DTD/svg11.dtd" [
	<!ENTITY ns_extend "http://ns.adobe.com/Extensibility/1.0/">
	<!ENTITY ns_ai "http://ns.adobe.com/AdobeIllustrator/10.0/">
	<!ENTITY ns_graphs "http://ns.adobe.com/Graphs/1.0/">
	<!ENTITY ns_vars "http://ns.adobe.com/Variables/1.0/">
	<!ENTITY ns_imrep "http://ns.adobe.com/ImageReplacement/1.0/">
	<!ENTITY ns_sfw "http://ns.adobe.com/SaveForWeb/1.0/">
	<!ENTITY ns_custom "http://ns.adobe.com/GenericCustomNamespace/1.0/">
	<!ENTITY ns_adobe_xpath "http://ns.adobe.com/XPath/1.0/">
]>
<svg version="1.1" xmlns:x="&ns_extend;" xmlns:i="&ns_ai;" xmlns:graph="&ns_graphs;"
	 xmlns="http://www.w3.org/2000/svg" xmlns:xlink="http://www.w3.org/1999/xlink" x="0px" y="0px" width="279.527px"
	 height="279.527px" viewBox="0 0 279.527 279.527" enable-background="new 0 0 279.527 279.527" xml:space="preserve">
<metadata>
	<sfw  xmlns="&ns_sfw;">
		<slices></slices>
		<sliceSourceBounds  width="16383" height="16383" y="-8392" x="-7991" bottomLeftOrigin="true"></sliceSourceBounds>
	</sfw>
</metadata>
<g id="Grid" display="none">
	<rect id="_x31_00px_right" x="239.762" y="-60.237" display="inline" fill="#EBEBEB" width="100" height="400"/>
	<rect id="_x31_00px_left" x="-60.238" y="-60.237" display="inline" fill="#EBEBEB" width="100" height="400"/>
	<rect id="_x31_00px_top" x="-60.238" y="-60.237" display="inline" fill="#EBEBEB" width="400" height="100"/>
	<rect id="_x31_00px_bottom" x="-60.238" y="239.763" display="inline" fill="#EBEBEB" width="400" height="100"/>
	<rect id="_x37_5px_left" x="-60.238" y="-60.237" display="inline" opacity="0.75" fill="#666666" width="75" height="400"/>
	<rect id="_x37_5px_top" x="-60.238" y="-60.237" display="inline" opacity="0.75" fill="#666666" width="400" height="75"/>
	<rect id="_x37_5px_bottom" x="-59.238" y="264.763" display="inline" opacity="0.75" fill="#666666" width="400" height="75"/>
	<rect id="_x37_5px_right" x="264.762" y="-59.237" display="inline" opacity="0.75" fill="#666666" width="75" height="400"/>
	<rect id="_x35_0px_left" x="-60.238" y="-60.237" display="inline" opacity="0.8" fill="#CCCCCC" width="50" height="400"/>
	<rect id="_x35_0px_right" x="289.762" y="-60.237" display="inline" opacity="0.8" fill="#CCCCCC" width="50" height="400"/>
	<rect id="_x35_0px_top" x="-60.238" y="-60.237" display="inline" opacity="0.8" fill="#CCCCCC" width="400" height="50"/>
	<rect id="_x35_0px_bottom" x="-60.238" y="289.763" display="inline" opacity="0.8" fill="#CCCCCC" width="400" height="50"/>
	<rect id="_x32_5px_left" x="-60.238" y="-60.237" display="inline" fill="#EBEBEB" width="25" height="400"/>
	<rect id="_x32_5px_top" x="-60.238" y="-60.237" display="inline" fill="#EBEBEB" width="400" height="25"/>
	<rect id="_x32_5px_bottom" x="-60.238" y="314.763" display="inline" fill="#EBEBEB" width="400" height="25"/>
	<rect id="_x32_5px_right" x="314.762" y="-60.237" display="inline" fill="#EBEBEB" width="25" height="400"/>
</g>
<g id="Tile_Square">
	<path fill="#F8E7A2" d="M278.355,136.936c1.563,1.562,1.563,4.093,0,5.656L142.59,278.357c-1.561,1.561-4.094,1.561-5.656,0
		L1.17,142.591c-1.561-1.563-1.561-4.094,0-5.656L136.934,1.171c1.563-1.562,4.096-1.562,5.656,0L278.355,136.936z"/>
</g>
<g id="Text">
	<g>
		<path fill="#262222" stroke="#DBDADA" stroke-width="3" stroke-miterlimit="10" d="M132.153,85.017v8.489
			c-3.083,0.085-5.037,0.708-5.86,1.869c-0.824,1.162-1.236,4.256-1.236,9.281v14.128c0,7.688-0.38,12.471-1.14,14.35
			c-0.76,1.88-2.915,3.538-6.462,4.974c3.505,1.394,5.648,3.041,6.431,4.941c0.781,1.9,1.172,6.694,1.172,14.382v15.838
			c0,4.983,0.401,8.046,1.204,9.187c0.802,1.141,2.766,1.795,5.892,1.964v8.489c-2.957,0.085-4.921,0.127-5.892,0.127
			c-3.928,0-6.874-0.285-8.838-0.855c-1.964-0.569-3.781-2.09-5.449-4.562c-1.669-2.471-2.502-7.254-2.502-14.35v-22.301
			c-0.042-2.914-0.455-4.878-1.235-5.892c-0.782-1.014-2.482-1.584-5.1-1.711v-10.58c2.956-0.084,4.751-0.729,5.385-1.933
			c0.633-1.203,0.95-5.036,0.95-11.498v-14.699c0-8.32,1.213-13.705,3.643-16.155c2.428-2.449,6.789-3.674,13.083-3.674
			C127.465,84.827,129.45,84.89,132.153,85.017z"/>
		<path fill="#262222" stroke="#DBDADA" stroke-width="3" stroke-miterlimit="10" d="M151.35,192.909v-8.489
			c3.125-0.169,5.089-0.813,5.892-1.932c0.802-1.12,1.204-4.192,1.204-9.219v-15.838c0-7.688,0.38-12.471,1.141-14.351
			c0.76-1.879,2.914-3.536,6.461-4.973c-3.506-1.395-5.648-3.041-6.43-4.942c-0.782-1.9-1.172-6.693-1.172-14.381v-14.128
			c0-4.983-0.402-8.066-1.204-9.25c-0.803-1.182-2.767-1.815-5.892-1.901v-8.489c2.955-0.126,4.898-0.19,5.828-0.19
			c5.025,0,8.49,0.507,10.391,1.521s3.453,2.767,4.656,5.258c1.203,2.493,1.805,6.842,1.805,13.051v14.699l0.064,5.828
			c0,2.957,0.391,4.941,1.172,5.955s2.48,1.563,5.1,1.647v10.58c-2.197,0.043-3.738,0.466-4.625,1.268
			c-0.887,0.803-1.393,1.816-1.52,3.041c-0.127,1.226-0.191,4.287-0.191,9.187v16.408c0,5.702-0.527,9.904-1.584,12.607
			c-1.055,2.703-2.682,4.571-4.877,5.607c-2.197,1.034-5.598,1.552-10.201,1.552C156.143,193.036,154.137,192.994,151.35,192.909z"
			/>
	</g>
	<g>
	</g>
	<g>
	</g>
	<g>
	</g>
	<g>
	</g>
	<g>
	</g>
	<g>
	</g>
	<g>
	</g>
	<g>
	</g>
	<g>
	</g>
	<g>
	</g>
	<g>
	</g>
	<g>
	</g>
	<g>
	</g>
	<g>
	</g>
	<g>
	</g>
</g>
</svg>
